<svg width="60" height="35" viewBox="0 0 60 35" fill="none" xmlns="http://www.w3.org/2000/svg">
  <!-- Toggle background (pink outline) -->
  <path fill="none" stroke="#FF6B6B" stroke-width="2.5" d="M42 7H18C11 7 5.5 12.5 5.5 19.5C5.5 26.5 11 32 18 32H42C49 32 54.5 26.5 54.5 19.5C54.5 12.5 49 7 42 7Z"/>
  
  <!-- Toggle switch (10% bigger white circle) -->
  <circle cx="42.5" cy="19.5" r="12.1" fill="#FFFFFF"/>
  
  <!-- Heart shape inside the toggle switch (moved down slightly) -->
  <path d="M42.5 13.5C40.5 11.5 37.5 11.5 35.5 13.5C33.5 15.5 33.5 18.5 35.5 20.5L42.5 27.5L49.5 20.5C51.5 18.5 51.5 15.5 49.5 13.5C47.5 11.5 44.5 11.5 42.5 13.5Z" fill="#E91E63"/>
</svg>
